<mxfile host="app.diagrams.net" agent="Mozilla/5.0 (Windows NT 10.0; Win64; x64) AppleWebKit/537.36 (KHTML, like Gecko) Chrome/128.0.0.0 YaBrowser/24.10.0.0 Safari/537.36" version="24.8.6">
  <diagram name="Страница — 1" id="aI5VxXd72J19tKsDMBbk">
    <mxGraphModel dx="1750" dy="1528" grid="1" gridSize="10" guides="1" tooltips="1" connect="1" arrows="1" fold="1" page="1" pageScale="1" pageWidth="827" pageHeight="583" math="0" shadow="0">
      <root>
        <mxCell id="0" />
        <mxCell id="1" parent="0" />
        <mxCell id="apnVTqp0gNlboStksCMc-13" style="edgeStyle=orthogonalEdgeStyle;rounded=0;orthogonalLoop=1;jettySize=auto;html=1;exitX=0.5;exitY=1;exitDx=0;exitDy=0;entryX=0.5;entryY=1;entryDx=0;entryDy=0;endArrow=ERzeroToMany;endFill=0;strokeWidth=1;" parent="1" source="apnVTqp0gNlboStksCMc-1" target="apnVTqp0gNlboStksCMc-3" edge="1">
          <mxGeometry relative="1" as="geometry">
            <mxPoint x="1123.4286063058037" y="-370.1428571428571" as="targetPoint" />
            <Array as="points">
              <mxPoint x="140" y="-310" />
              <mxPoint x="1100" y="-310" />
            </Array>
          </mxGeometry>
        </mxCell>
        <mxCell id="apnVTqp0gNlboStksCMc-1" value="&lt;font style=&quot;font-size: 14px;&quot;&gt;Users&lt;/font&gt;" style="swimlane;whiteSpace=wrap;html=1;" parent="1" vertex="1">
          <mxGeometry x="30" y="-530" width="200" height="160" as="geometry" />
        </mxCell>
        <mxCell id="apnVTqp0gNlboStksCMc-17" value="&lt;font style=&quot;font-size: 14px;&quot;&gt;&lt;b&gt;user_id&lt;/b&gt; INT (PK)&amp;nbsp;&lt;/font&gt;&lt;div style=&quot;font-size: 14px;&quot;&gt;&lt;font style=&quot;font-size: 14px;&quot;&gt;&lt;b&gt;name &lt;/b&gt;VARCHAR&lt;/font&gt;&lt;/div&gt;&lt;div style=&quot;font-size: 14px;&quot;&gt;&lt;font style=&quot;font-size: 14px;&quot;&gt;&lt;b&gt;surname&lt;/b&gt; VARCHAR&lt;/font&gt;&lt;/div&gt;&lt;div style=&quot;font-size: 14px;&quot;&gt;&lt;font style=&quot;font-size: 14px;&quot;&gt;&lt;b&gt;birth_day&lt;/b&gt; DATE&lt;/font&gt;&lt;/div&gt;&lt;div style=&quot;font-size: 14px;&quot;&gt;&lt;font style=&quot;font-size: 14px;&quot;&gt;&lt;b&gt;city &lt;/b&gt;VARCHAR&lt;/font&gt;&lt;/div&gt;" style="text;html=1;align=left;verticalAlign=middle;whiteSpace=wrap;rounded=0;spacingLeft=8;" parent="apnVTqp0gNlboStksCMc-1" vertex="1">
          <mxGeometry y="22" width="200" height="138" as="geometry" />
        </mxCell>
        <mxCell id="apnVTqp0gNlboStksCMc-9" style="edgeStyle=orthogonalEdgeStyle;rounded=0;orthogonalLoop=1;jettySize=auto;html=1;exitX=1;exitY=0.5;exitDx=0;exitDy=0;entryX=0;entryY=0.5;entryDx=0;entryDy=0;endArrow=ERzeroToMany;endFill=0;strokeWidth=1;" parent="1" source="apnVTqp0gNlboStksCMc-18" target="apnVTqp0gNlboStksCMc-19" edge="1">
          <mxGeometry relative="1" as="geometry" />
        </mxCell>
        <mxCell id="apnVTqp0gNlboStksCMc-2" value="&lt;font style=&quot;font-size: 14px;&quot;&gt;Chats&lt;/font&gt;" style="swimlane;whiteSpace=wrap;html=1;" parent="1" vertex="1">
          <mxGeometry x="680" y="-530" width="200" height="160" as="geometry" />
        </mxCell>
        <mxCell id="apnVTqp0gNlboStksCMc-18" value="&lt;font style=&quot;font-size: 14px;&quot;&gt;&lt;b&gt;chat_id&lt;/b&gt; INT (PK)&lt;/font&gt;&lt;div&gt;&lt;font style=&quot;font-size: 14px;&quot;&gt;&lt;b&gt;chat_type&lt;/b&gt; ENUM&lt;/font&gt;&lt;/div&gt;&lt;div&gt;&lt;font style=&quot;font-size: 14px;&quot;&gt;&lt;b&gt;chat_name &lt;/b&gt;VARCHAR&lt;/font&gt;&lt;/div&gt;" style="text;html=1;align=left;verticalAlign=middle;whiteSpace=wrap;rounded=0;spacingLeft=8;" parent="apnVTqp0gNlboStksCMc-2" vertex="1">
          <mxGeometry y="22" width="200" height="138" as="geometry" />
        </mxCell>
        <mxCell id="apnVTqp0gNlboStksCMc-10" style="edgeStyle=orthogonalEdgeStyle;rounded=0;orthogonalLoop=1;jettySize=auto;html=1;exitX=0;exitY=0.5;exitDx=0;exitDy=0;entryX=1;entryY=0.5;entryDx=0;entryDy=0;endArrow=ERmandOne;endFill=0;strokeWidth=1;" parent="1" source="apnVTqp0gNlboStksCMc-19" target="apnVTqp0gNlboStksCMc-18" edge="1">
          <mxGeometry relative="1" as="geometry">
            <Array as="points">
              <mxPoint x="940" y="-439" />
              <mxPoint x="940" y="-439" />
            </Array>
          </mxGeometry>
        </mxCell>
        <mxCell id="apnVTqp0gNlboStksCMc-11" style="edgeStyle=orthogonalEdgeStyle;rounded=0;orthogonalLoop=1;jettySize=auto;html=1;exitX=1;exitY=0.5;exitDx=0;exitDy=0;entryX=0;entryY=0.5;entryDx=0;entryDy=0;endArrow=ERzeroToOne;endFill=0;strokeWidth=1;" parent="1" source="apnVTqp0gNlboStksCMc-19" target="apnVTqp0gNlboStksCMc-20" edge="1">
          <mxGeometry relative="1" as="geometry" />
        </mxCell>
        <mxCell id="apnVTqp0gNlboStksCMc-14" style="edgeStyle=orthogonalEdgeStyle;rounded=0;orthogonalLoop=1;jettySize=auto;html=1;exitX=0.5;exitY=1;exitDx=0;exitDy=0;entryX=0.5;entryY=1;entryDx=0;entryDy=0;endArrow=ERmandOne;endFill=0;strokeWidth=1;" parent="1" edge="1">
          <mxGeometry relative="1" as="geometry">
            <mxPoint x="1100" y="-370" as="sourcePoint" />
            <mxPoint x="140" y="-370" as="targetPoint" />
            <Array as="points">
              <mxPoint x="1100" y="-310" />
              <mxPoint x="140" y="-310" />
            </Array>
          </mxGeometry>
        </mxCell>
        <mxCell id="apnVTqp0gNlboStksCMc-3" value="&lt;font style=&quot;font-size: 14px;&quot;&gt;Messages&lt;/font&gt;" style="swimlane;whiteSpace=wrap;html=1;" parent="1" vertex="1">
          <mxGeometry x="1000" y="-530" width="200" height="160" as="geometry" />
        </mxCell>
        <mxCell id="apnVTqp0gNlboStksCMc-19" value="&lt;font style=&quot;font-size: 14px;&quot;&gt;&lt;b&gt;message_id&lt;/b&gt; INT (PK)&lt;/font&gt;&lt;div&gt;&lt;font style=&quot;font-size: 14px;&quot;&gt;&lt;b&gt;chat_id&lt;/b&gt; INT (FK)&lt;/font&gt;&lt;/div&gt;&lt;div&gt;&lt;font style=&quot;font-size: 14px;&quot;&gt;&lt;b&gt;user_id&lt;/b&gt; INT (FK)&lt;/font&gt;&lt;/div&gt;&lt;div&gt;&lt;span style=&quot;font-size: 14px;&quot;&gt;&lt;b&gt;sticker_id&lt;/b&gt; INT (FK)&lt;/span&gt;&lt;/div&gt;&lt;div&gt;&lt;font style=&quot;font-size: 14px;&quot;&gt;&lt;b&gt;content_type&lt;/b&gt; ENUM&lt;/font&gt;&lt;/div&gt;&lt;div&gt;&lt;span style=&quot;font-size: 14px;&quot;&gt;&lt;b&gt;created_at&lt;/b&gt; TIMESTAMPZ&lt;/span&gt;&lt;/div&gt;&lt;div&gt;&lt;span style=&quot;font-size: 14px;&quot;&gt;&lt;b&gt;status&lt;/b&gt; ENUM&lt;/span&gt;&lt;/div&gt;&lt;div&gt;&lt;span style=&quot;font-size: 14px;&quot;&gt;&lt;b&gt;content&lt;/b&gt; TEXT&lt;/span&gt;&lt;/div&gt;" style="text;html=1;align=left;verticalAlign=middle;whiteSpace=wrap;rounded=0;spacingLeft=8;" parent="apnVTqp0gNlboStksCMc-3" vertex="1">
          <mxGeometry y="22" width="200" height="138" as="geometry" />
        </mxCell>
        <mxCell id="apnVTqp0gNlboStksCMc-12" style="edgeStyle=orthogonalEdgeStyle;rounded=0;orthogonalLoop=1;jettySize=auto;html=1;exitX=0;exitY=0.5;exitDx=0;exitDy=0;entryX=1;entryY=0.5;entryDx=0;entryDy=0;endArrow=ERzeroToMany;endFill=0;strokeWidth=1;" parent="1" source="apnVTqp0gNlboStksCMc-20" target="apnVTqp0gNlboStksCMc-19" edge="1">
          <mxGeometry relative="1" as="geometry">
            <Array as="points">
              <mxPoint x="1250" y="-439" />
              <mxPoint x="1250" y="-439" />
            </Array>
          </mxGeometry>
        </mxCell>
        <mxCell id="apnVTqp0gNlboStksCMc-5" value="&lt;font style=&quot;font-size: 14px;&quot;&gt;Stickers&lt;/font&gt;" style="swimlane;whiteSpace=wrap;html=1;" parent="1" vertex="1">
          <mxGeometry x="1320" y="-530" width="200" height="160" as="geometry" />
        </mxCell>
        <mxCell id="apnVTqp0gNlboStksCMc-20" value="&lt;font style=&quot;font-size: 14px;&quot;&gt;&lt;b&gt;sticker_id&lt;/b&gt; INT (PK)&lt;/font&gt;&lt;div&gt;&lt;font style=&quot;font-size: 14px;&quot;&gt;&lt;b&gt;sticker_url&lt;/b&gt;&amp;nbsp;VARCHAR&lt;/font&gt;&lt;/div&gt;&lt;div&gt;&lt;font style=&quot;font-size: 14px;&quot;&gt;&lt;b&gt;tag &lt;/b&gt;VARCHAR&lt;/font&gt;&lt;/div&gt;" style="text;html=1;align=left;verticalAlign=middle;whiteSpace=wrap;rounded=0;spacingLeft=8;" parent="apnVTqp0gNlboStksCMc-5" vertex="1">
          <mxGeometry y="22" width="200" height="138" as="geometry" />
        </mxCell>
        <mxCell id="apnVTqp0gNlboStksCMc-25" value="&lt;span style=&quot;font-size: 14px;&quot;&gt;Users_Chats&lt;/span&gt;" style="swimlane;whiteSpace=wrap;html=1;" parent="1" vertex="1">
          <mxGeometry x="360" y="-530" width="200" height="160" as="geometry" />
        </mxCell>
        <mxCell id="apnVTqp0gNlboStksCMc-27" value="&lt;span style=&quot;font-size: 14px;&quot;&gt;&lt;b&gt;user_chat&amp;nbsp;&lt;/b&gt;INT (PK)&lt;/span&gt;&lt;div&gt;&lt;span style=&quot;font-size: 14px;&quot;&gt;&lt;b&gt;user_id &lt;/b&gt;INT (FK)&lt;/span&gt;&lt;div&gt;&lt;span style=&quot;font-size: 14px;&quot;&gt;&lt;b&gt;chat_id &lt;/b&gt;INT (FK)&lt;/span&gt;&lt;/div&gt;&lt;/div&gt;" style="text;html=1;align=left;verticalAlign=middle;whiteSpace=wrap;rounded=0;spacingLeft=8;" parent="apnVTqp0gNlboStksCMc-25" vertex="1">
          <mxGeometry y="22" width="200" height="138" as="geometry" />
        </mxCell>
        <mxCell id="apnVTqp0gNlboStksCMc-29" style="edgeStyle=orthogonalEdgeStyle;rounded=0;orthogonalLoop=1;jettySize=auto;html=1;exitX=1;exitY=0.5;exitDx=0;exitDy=0;entryX=0;entryY=0.5;entryDx=0;entryDy=0;endArrow=ERzeroToMany;endFill=0;" parent="1" source="apnVTqp0gNlboStksCMc-17" target="apnVTqp0gNlboStksCMc-27" edge="1">
          <mxGeometry relative="1" as="geometry" />
        </mxCell>
        <mxCell id="apnVTqp0gNlboStksCMc-30" style="edgeStyle=orthogonalEdgeStyle;rounded=0;orthogonalLoop=1;jettySize=auto;html=1;exitX=1;exitY=0.5;exitDx=0;exitDy=0;entryX=0;entryY=0.5;entryDx=0;entryDy=0;endArrow=ERmandOne;endFill=0;" parent="1" source="apnVTqp0gNlboStksCMc-27" target="apnVTqp0gNlboStksCMc-18" edge="1">
          <mxGeometry relative="1" as="geometry" />
        </mxCell>
        <mxCell id="apnVTqp0gNlboStksCMc-31" style="edgeStyle=orthogonalEdgeStyle;rounded=0;orthogonalLoop=1;jettySize=auto;html=1;exitX=0;exitY=0.5;exitDx=0;exitDy=0;entryX=1;entryY=0.5;entryDx=0;entryDy=0;endArrow=ERmandOne;endFill=0;" parent="1" source="apnVTqp0gNlboStksCMc-27" target="apnVTqp0gNlboStksCMc-17" edge="1">
          <mxGeometry relative="1" as="geometry" />
        </mxCell>
        <mxCell id="apnVTqp0gNlboStksCMc-32" style="edgeStyle=orthogonalEdgeStyle;rounded=0;orthogonalLoop=1;jettySize=auto;html=1;exitX=0;exitY=0.5;exitDx=0;exitDy=0;endArrow=ERoneToMany;endFill=0;" parent="1" source="apnVTqp0gNlboStksCMc-18" target="apnVTqp0gNlboStksCMc-27" edge="1">
          <mxGeometry relative="1" as="geometry" />
        </mxCell>
        <mxCell id="apnVTqp0gNlboStksCMc-33" value="junction table" style="text;whiteSpace=wrap;html=1;fontFamily=Helvetica;" parent="1" vertex="1">
          <mxGeometry x="422" y="-560" width="76" height="40" as="geometry" />
        </mxCell>
        <mxCell id="apnVTqp0gNlboStksCMc-34" value="" style="shape=image;verticalLabelPosition=bottom;labelBackgroundColor=default;verticalAlign=top;aspect=fixed;imageAspect=0;image=data:image/png,iVBORw0KGgoAAAANSUhEUgAABKwAAAGjCAYAAAAByY07AAAAAXNSR0IArs4c6QAAAARnQU1BAACxjwv8YQUAAAAJcEhZcwAADsMAAA7DAcdvqGQAAGm7SURBVHhe7d0NcFvneeD7B1VqJ7LlaC3LthRnrVYAndByK1luVwYnlZKdGwf0R5lsza7VnavEngtsM+0CqaPpdcsZy3PZZu4oroHt7naJucmW93rlhM5s1UgCbHd2JSVDWJ1YspvQdExAtRIrkm3ZjiL5S04UXDzveQ9wAAL8BMkD4P/LvDnnvOcDkMlD4jx8n+cNFEsEAAAAAAAA8IlfsUsAAAAAAADAFwhYAQAAAAAAwFcIWAEAAAAAAMBXCFgBAAAAAADAVwhYAQAAAAAAwFcIWAEAAAAAAMBXCFgBAAAAAADAVwhYAQAAAAAAwFcIWAEAAAAAAMBXCFgBAAAAAADAVwhYAQAAAAAAwFcIWAEAAAAAAMBXCFgBAAAAAADAVwhYAQAAAAAAwFcIWAEAAAAAAMBXCFgBAAAAAADAVwhYAQAAAAAAwFcIWAEAAAAAAMBXCFgBAAAAAADAVwhYAQAAAAAAwFcIWAEAAAAAAMBXCFgBAAAAAADAVwhYAQAAAAAAwFcIWAEAAAAAAMBXCFgBAAAAAADAVwhYAQAAAAAAwFcIWAEAAAAAAMBXCFgBAAAAAADAVwhYAQAAAAAAwFcIWAEAAAAAAMBXCFgBAAAAAADAVwhYAQAAAAAAwFcIWAEAAAAAAMBXCFgBAAAAAADAVwhYAQAAAAAAwFcIWAEAAAAAAMBXCFgBAAAAAADAVwhYAQAAAAAAwFcIWAEAAAAAAMBXCFgBAAAAAADAVwhYAQAAAAAAwFcIWAEAAAAAAMBXCFgBAAAAAADAVwhYAQAAAAAAwFcIWAEAAAAAAMBXCFgBAAAAAADAVwhYAQAAAAAAwFcIWAEAAAAAAMBXCFgBAAAAAADAVwhYAQAAAAAAwFcIWAEAAAAAAMBXCFgBAAAAAADAVwhYAQAAAAAAwFcIWAEAAAAAAMBXCFgBAAAAAADAVwhYAQAAAAAAwFcIWAEAAAAAAMBXCFgBAAAAAADAVwhYAQAAAAAAwFcIWAEAAAAAAMBXCFgBAAAAAADAVwhYAQAAAAAAwFcIWAEAAAAAAMBXAsUSuw4ASy6QfM6uodUUExvtGjoN92174V4GAAB+wAgrAAAAAAAA+AojrAD4ijtSo5i40izhf4Hkm2bJqIzOxX3bHriXAQCAnzDCCgAAAAAAAL5CwAoAAAAAAAC+QsAKAAAAAAAAvkLACgAAAAAAAL5CwAoAAAAAAAC+QsAKAAAAAAAAvkLACgAAAAAAAL4SKJbYdQBYcoHkc2ZZTFxplo3c8tVX7NrsPPPla+1aqzshqZ6tMj7wIxmK2K4lEki+aZbFxEazROeZ6X27UBbn54F/7rmFwr0MAAD8hBFWANCpsg9IoOfrUrCbABYY9xwAAMCMEbACAAAAAACArxCwAtCyNJ2ntjXq11bfQYkFPicp75CHwtelJ/CAZO2mGRURuN626mMLqc812KfpQ9dLLKvX1332elNcq5Hq19Br2h2G8zp1r2f+HZXzvCM7srHSdu8ekdxDEtJ9sYN2x+zfH+AHje75ev3apsI9BwAAsPQIWAHAVPQBtPdFSeZ/JMViqWXusDuch9rQyB2S136z7wZJhDyBrpKxwaek25z7FYlMca1GzGskbpCM+xr5B6Xb7lPp3j8RGXb2ZaJHJbGj8oBcOJCXfve1ioclKaUHZfuQHBkq9WW2i4QfdN7/0Cen/LcCnYJ7DgAAwB8IWAHAtG6QrqBdjdwrcbN+UHYnRJLD94q7SyIxSYb3yF5vxKo/Zo931btWI/oaRyWa+YqUazwHS+d4Cj6Hk39VvkZk54MSzuUl72xKMP4Vz/XXSXyg9LA89tI09XNm8/6AdsM9BwAA4BcErAC0LJ0ZrLY16tc2J8FPSX94j/QGatKCsk9JWo5KIuSm8mjbKomc3W9t6Fpn10oaXasR8xrbpW+KGcmqrm+8KBOep+Oq1CZNR5rKbN8f4CON7vl6/drq4p4DAADwDQJWAFpWo7o09fq1zc06iY/+yKQFjfXqQ6g35W97JW3I0xpPeT/VtZrNqZ1VnbK43e5rZDHfH9Bcje75ev3amo97DgAAoJkIWAFArXxeagZKiaYFjWpNmvAeGUydEAmFJFwzsmLGaq/VyHxeo/CSjGlAbbSSsliYeNGuTWOm7w9oN9xzAAAAvkHACkCH+zXpDh+VxG47Y5eOkvCm8WQfmJSqY1KCSg+YA1pwuarI+glJxSoFmCdpdK1G6r1G4euSmvEQDM+Dd+m8HYmjdsPDU39n1u8PaDfccwAAAL5BwApAy2pUl6Zev7b6NCXnbyWa/rxTcybwlPTlH5Sw3asjLpxUHW1bZaT/cDnlT2f9ykSd+jPl/d2fqhRhrzXFtRqZ9Bqh/aXr2J1TKT14DyelUmNrh8hwbXqSLRJvrq0zmc3h/QF+0eier9evrRHuOQAAAH8IFEvsOgAsuUDyObMsJq40S/hfIPmmWRYTG80SnYf7tj1wLwMAAD9hhBUALCmnULMzwqK6MWsYAAAAgE5FwAoAltQnZcidUaymkRoEAAAAoFMRsAIAAAAAAICvELACAAAAAACArxCwAgAAAAAAgK8QsAIAAAAAAICvBIoldh0Alpw7PT5aD1Phdy7u2/bCvQwAAPyAgBUAX3EffHlgah18zcD3QHvg6wgAAPyElEAAAAAAAAD4CgErAAAAAAAA+AoBKwAAAAAAAPgKASsAAAAAAAD4CgErAAAAAAAA+AoBKwAAAAAAAPgKASsAAAAAAAD4CgErAAAAAAAA+AoBKwDwrazEAgEJlFosa7sA1FiC+6SQkh7zmj2SKti+WjM5BgAAAA0RsALge7c8ctQ019GT52X7o+Om786v/UD2Pf+G6XeP8zaUuA/OPSnhuRmLpfYe9P19y30CAADgKwSsAPjeM1/abNccQ0+fNsuv3rVezl+4KOkjp8y2Hqft4Bc3ytb1K+WO7lWmv9MVDoxIzq4Di6XV7ttZ3SfBuIwWi1Isjko8aPsAAADQVASsALScYyfPy/3bPirbSg+30S1r5fS59+0ekVOl9djjL8qKS5fJrtvW2V6Pemk65b6YlDOKyn1uq07ryca8+7ypSN70JLs+gxEbhVRP1fV6JuUQFSTV4+73vhdv/+T9+j5DCfsYnktIqO61gYU3r/vW8s19Uu/nSM1rxA7YbgAAAMwJASsALUdHY2y+bkV5lEZ0yxq7R+ThQy/LxJl3Zf/4G5J+2hnBMWv6MBpKNBxtoQ+3vWm7YaV7J9fPSff2Ss1hdVU9LDeQ7g1J5ZCcJEKe4Nok0+0HFt9871t/3ycarPK+dum9JBr/DAEAAMD0CFgBaFm7njxhlvfcfI1ZqofvWm8ejDWtKH3ESUGatfy4fdCMSsak/XhSfwopGTRRqLAk886+TFS3Sw+oe2sefcNJyeu5o3FpmDVUvp4enrevlZF+p6simnH2uS8mYzJhRnYEJT7qvA/3XOeItOjbiQwVJZ8Mmx73/YySw4QlNKf71u/3SXZ3OVgVzTivUb4eAAAA5oSAFYCWpA+9WsQ5fXeXSSOqtS240q7NQahbnEfNtPTWpP1U6tzo6Awn9ad2tJUrOjBFoMoqX6/0kDxcfkCOSLzmYTnaF3FWyu+tojpNamajuoClMNf71u/3SWFizFkpvb+d9i0E4wM2KAYAAIC5IGAFoOXoQ++h42fNQ2/X6uW2V8wMZO4D8Z5jr8nN162we2bJFFTOS2WAhBOcqq5p4x19ZduQfVJdTNlYOU3KGXnijhwB/GXB79upLMV9UpgQG8YCAADAHBCwAuB77jT37lLr3Lx14WLpQfeFqmnwo7euNQ+9sccnzHbs1kqNnMlyMnLACUDVnx2skkLkZhflxvMS7NrgbEhaBj0BrEIqNadaOOXr5RKyu3yBrKSmKvjsUR7ZEc04KUxTPSTnxiVvV4GF1sz71u/3SeX9jYj9sTK7WQcBAAAwCQErAL6ntW3cVrvt7dfZx/bdd5PkNu+TRyZukI8NXyHvf2eX2VcWvF367cipXCJk0oNCI1KdPpSNeVKHKil/Jt0osrM88so931wjMe50zpbnelq43bler5Te0uyke51z6xSL9wbZNMWRWQKxGGrvT++2t39G963f75NInx2xVUkVnq5APAAAAKZGwApA23j7LwKl/y/Kz7/7kFz2Z780TderBSU+nKwEqLTA8vCk0s2TaCFlJ+NPR1550wWtaJ/MLSHQGclVrhFtbeiqrs3TSDA+7HkvWgi+TqpTZGjS9QG/mPF96+v7JCJDec/PFX2NjHcbAAAAsxUoar4LAPhEIPmcWRYTG81yppyH3gp96FVv/+WvyGV/zo+5hTTXrxnaB/dte+BeBgAAfsIIKwBtQR9u3farn3jQPPBq0/Wll5WYSWGa3GJzKXwFLIGzFy7KF576sVk2C/ctAAAAGmGEFQBf4S/8raf2a3bkn56Xvxz9kYxf+JAsW7ZMNl97ufzV7TfJtZf9qtmP1qNBqs/ue0l2dF8pw+Nvyt/d+Wuy8tJldi/3bbvg6wgAAPyEEVYAgKbZ9eh+iTx5Rk6dOiUf//F3pOulg3Li2adl09eOyhMnztmj0ErcYNUjWz8in+++0ix1u5kjrQAAAIBaBKwAAE3xxOj35D+d/KBEfrxfNp/5nqx955RpN735ffnMD/fIHz0xIT988z17NFqBN1i1cfWHTJ8uCVoBAABgoRGwAgA0xe5jr0vXz16UFT8/b3sqLrl4QTaf/b489I+v2h74Xb1glYugFQAAABYaNawA+Ao1VFqP+zW76v03ZetP/qeseu91s13r/WWXyjc+fp/86W9dY3vgZ1qr6r4Nq2Tgtxt/vQ6dfEseOvKKWSru29bGz18AAOAnBKwA+Ir7wITWc6W8J7cVvlV3hJX68KrV8tdr++XdP/oN2wM/e+7Mu/Klwz+ZVGDd5R2Btem/v2h70Q4IWAEAAD8gYAXAV/gLf+txv2Zbr3hPPvDCd2X9uYLZrrXmE3fK4Q9+TA7+XtD2wO8aBa1q0wW5b9sDX0cAAOAn1LACADTFVyM3Sn7tb8vFwOTROKtWrZLch26QP73latuDVlCvVtVUta0AAACAZiFgBQBoilvWrJD/8Ikb5Lu/uUN+tjpk+pYvXy7rem6TZzZ/QcIfWSGfWXeF6Ufr8AatTpx7n2AVAAAAFgUBKwBA09x/y7Uy3LdBXt3YJ+mP/6Ekr98hI8tulD/ZfI3s2nKtPQqtxg1affJbBYJVAAAAWBQErAAATbVlzWWmTpXWwdH27B/cwMiqNqBBqpfu7SZYBQAAgEVBwAoAAAAAAAC+QsAKAAAAAAAAvkLACgAAAAAAAL5CwAoAAAAAAAC+QsAKAJZANhaQQCAmWbtdTyHVI4HYVEcAKN0pkuoJCLcKAABAeyFgBcD3bnnkqGmuoyfPy/ZHx03fnV/7gex7/g3T7x7nbX4VGSpKsTgkEbsNYAllYxLoSUnBbk5pNscCAABgzgLFErsOAEsukHzOLIuJjWbp0uDTM1/abNajj0/IWxd+IdFb18quJ0/IikuXyb77bjL71PkLF8v9u25bZ3tbj46wCo0PSHHI32GtRl8zdI7pvgf0ftw//oZ8u3Sfrr3iEtvrSD99StJHTtsth3uvz4yOsArJ+EBR5nyraBBqsFvyo3EJ2q6GZnNsi+Fexly43zfobPzcALAQGGEFoOUcO3le7t/2Udm2fqVEt6yV0+fet3tETpXWY4+/OEWwKiuxQI+kvMMjCinp8abn6QNpQFP2tFUfa9L06u5z05L0+tOn+2lKYE/Vm3D6ytfuSUne9gOtTAPIh46fNeuPHXvVLL3uuPEqGbq7y7TLS/dt1+oP2T2TVd9/tWmAzj3o7Kt3j1fO846QMvddb1okl5CQ7psit7Desaav5hzzPu1ruPd61XuvM0Kr8c8WAACAzsQIKwC+MpMRVi59ENaUwO2brjajrdT93z4uh+3DcXTLmnJ/hQaUBqU7Pypxd3iEPsyGxmVAU/TM+oj0u/uzKUmF4mZdHyhDI/2VkRUa2OoVyZjUPmeUx4hEpX94qHLtBvQhdrA7L6P2QN3uHUvWXLv0YBzNMMIKvjfV94Cm7D58+GW5s3uVCVx5R0N6uSOt9vy7j0vX6uW2t8Lcf4kN9n4zHZLKl+7NiHPvJXJhSdr7tvZ+KqRicuB29760x2/w3FvzGWE16Vzn+u6IL/NeSrdyOOne75Nff+qfLYuHexlzUfm+udIs0VkCyTfNkp8bABYCI6wAtCxNM1L33HyNWaqH71pvAlt3lB6Oa9OMZm6DdLlPrREnWFV6gpTdCZHksOeBNrJTkuG07PUOrujfOW2warKs7E2XHrarrj0kmahdB1rYY8++agJQ2nQ0pDvayltnTkdG6v2qQeZ6wSrn/stJNOMJ4AQ1WGXXS8LJ4fK9F9mZlHBuvDxKMRj3BpGDEh8o3VxjE5NGOc1JpE+iuRE54F6scEBGclHp80aaoplycNq8/nDp/aUH7SiqGf5sAQAA6DAErAC0JA1WafH19N1dJv2v1rbgSrs2S8Hbpb/0oNgbqEk3yu6VtOQkEXJTdrTpqA6739pQjnTNQmFCxrxBMivUHbZrQGuaOPNOqb1r0ngfesoJMLuTJGhg2R01qfezpgJOHhFpmfuvJghUY/K9NyYTnohUVcqdDnlqmoj0RXMyYiNWhQMjkov2VY2MCneH7JoV7Crd8dYMf7YAAAB0GgJWAFqOPtzqKA0NVnlHY+jMgW4ga8+x1+Tm61bYPbMRlPhoUYr5pIz16oOjtxZVVDJFnd2vus07Yy8/XnpcBdqP3odrrrikHJx68NPrTMqujqhyaQBLA1oLN0GCU1fOpNy5922Thy9G+qKSGzkghdL/DozkJDpVZK2uBfrZAgAA0MIIWAHwPTdtyF3qbGNvXbgo2x99oSqtSEdnaLAq9viE2Y7dusYsp1UvYBSMy2gxb9JyBjVvJ9Qt4ZoRG03T4Nr5ccJYaG0aWL5nUyVlV0c+amH1/c+/bntETp+7YJa193OV+dx/ZgRjVDKe+lSFiTG71iRuWmC2TjpgSW68ZgoFM6rKjqpcyJ8tAAAALYyAFQDfc0dnuOlD3m1vv84aqAWddVtHX22uO8IqJN3hnCR2u+OmshLzpgdlYzUzj9lUo2BcBqKatuMdcVWQVGzybF+z5l57h+dapffR1KwlYAkc+uJG2X7z1XZLTPqu9nlT/3S93v1cpd79p0XXa+7VxjwBodJ5O+rl23lqXk1r0rE2LXBwcjqgke71/FxxfuaEkzud4xbyZwsAAEALI2AFoMNoyl9GoqUHSKdWzF7pyyelXC0q1G1TAZ06MiP9+XJaTmSoKJmoU9+qvL/79kqh5HmIDOUlKXaqfG17+ySfpIYV4Jp0/4VGNP48vWBchpNSqRG1Q2S4NiXQFjk3166NWNdqcKwWetehmsmdk/P4wsmMdA/a1w/0SrqqCHudf1sTf7YAAAC0qkBRiyQAgE8wrXrr4WsGvgdKsjEJDHZL3pN6qLKxgAx256sCVH7F1xFzUfm+udIs0VkCyTfNkp8bABYCI6wAYEE4hZ6d0RLVbboBHACW0lzu3YKkBtMS7m/PUVFnL1yULzz1Y7MEFtstX31lTg0A0PoIWAHAgojIUM2MX25j5i/Az2Z37+oIKk3hS2yoTvNrFxqk+uy+l2TrdZebJUErAACwWAhYAQAAzJHWnzIBrQaRaN3fqoEsN1j1yNaPyOe7rzRLglYAAGCxELACsOiO/NPzctd/yUjwkYNyw3/8jmwfOSavvP1zuxcAsNS8waqNqz9k+nRJ0ApL4ZkvXzupNerX1kg2dr30pA5Kqud6CQScZlJ9C1+XHrsdCDzgmbHTUUh9rnx8IPA5SXmn8Mw+UH9fo/6q1yq1nq9PmhFU36d3f1ZfP3bQ7nXM6T0BQIshYAVgUe16dL9Enjwjp06dko//+DvS9dJBOfHs07Lpa0fliRPn7FEAgKVSL1jlImiFVpdL/LXI8I+kWPyR5JObJd17vTN7aGm7WDwsyfAe6fUEhzQwFBq5Q/Jmf6llbpBEyAa1NPjU+6Ik8+6+O8w5DftLCgfy0u/26+vJQxLyvJ4Gq3rHHqy83kBeehNH7V7HnN4TALQgAlYAFs0To9+T/3TygxL58X7ZfOZ7svadU6bd9Ob35TM/3CN/9MSEPRIAsFQif3dcPhdaOSlY5dL+B7dcK1u+MSF/O/6mKcg+1TKy95/tmYAPRP9Y3CzdYPyPJapdA/faCRPWSXxgu8jYS3bU00HZnRBJDrv7SyIxE9TaWx6GdYN0uTsj95av3ag/GP+K55jJr7c3vbnm9b4iGX2TZfN5TwDQWghYAVg0u4+9Ll0/e1FW/Py87am45OIF2Xz2+3YLALBU/uZff1T+R/5swxFU2v/QkVfkG73rTG2r//bpfznlMtv36/LA6GkTvALmotEsgPX6tU0l3P1rds21WbpDdrVW9ilJy1FJhNz0Om1bJZGz+4Ofkn4dkVXqr5pFtFG/VZXO17vH9pYUXpIxb7DJCnVvtmslc31PANCCCFgBmJMfvvme/Nfvvy67Sg8tM23ff/dSM6KqkeU/fs6uAQCWylRpf1OlC07lwX91jfzbrpVy6zfzpBJi1hrVqarXr625tkvGTb3zNGeehXUSHy1t5x+UMU0tLNe/atR/UGKB62vS+babPUY+L27caWpzeU8A0HoIWAGYtb3HfyYf/MCvyLorLpFdW66dcfvlJcvNSKpGVq+8wq4BAJZSvaDVXINVSn9naHsscr35g4eOuAJ8LxSSsLwoE9MVLQ/eK6O2/tVg6oTtLKntNyOotktmtJLOV5h40a6VNHi9/LinhtV83xMAtBACVgBmTB9WdDa/v9eA1bKAfGbd7AJMN5UOf+1D19ityZZ3b7FrAICl5g1anTj3/pyDVV76h46PXflB+d1fv0K+8eJP5bkz79o9gA8F75WBqKbfeUcpnZBUzM7sl31gUtrdhq51jfsNT7Cp8HXZ4S2obtL5Sq+3wzNzYOlavWm7rub6ngCgBRGwAjBjWn/kGxNnTV2Say/7Vds7c1+N3Cj5tb8tFwPLbE/FqlWrJPehG+wWAMAP3KDVJ79VmHewyrXy0mWyZc1lZqlNf7e894tf2r3AZI3qVNXr19ZMkaEfSSbq1IRy60WNdH/KGSEVCtm0O9vff9hJy2vUH7xXhpNSqT+lsxN6UwJNOp+dOdB9vb2fNrMZes3pPQFACwoUS+w6ANSlo6o+u/+EPP37jaqSztzDz7wi6e/9SDb95Lvy4TN5Wb58uVy96RNy8LKbJPyRFaaQryomNpol/C+QdGqP8TXrXHwPtIel+DpqoErTA+ObVpt1HX2F1lL5vrnSLNF82dj1Mth9WEbj/hspFUg6kynw8x/AQmCEFYAp6bTkmgqiszw1w/23XCvDfRvk1Y19kv74H0ry+h0ysuxG+ZPN15g6V0urIKmewKLNqpONBSQQiE1ZDLWQ6pEA0/wAU1jc+xbNpXWtdOSW1rUa+sEb5vcNAA+TErhdBnwYrAKAhUbACkBd7iyAf3rL1SYFRNM2mkVTQQ7+XtD8NU7bs39ww5T1sG555KhprqMnz8v2R8dN351f+4Hse/4N0+8e522LLhuTQE+qUntiCpGhohSLQ8JIfWCJzeK+xcLQ3wEauNJRtk+cOEeKIDqWjqZy0vls6xXJFL/CZwUAHYmAFYBJvLMAanqGri+lZ75UXbth6Glndqmv3rVezl+4KOkjp8y2Hqft4Bc3ytb1K+WO7lWmH8DS2vXkCRNAPlVn9Ez66VNLH2iGb2iNRP0jya3fzBO0QkfS+lTForcRrALQuQhYASib7yyAi+XYyfNy/7aPyrb1KyW6Za2c9jwE6wNx7PEXZcWly2TXbY2Hz5tUu4Cm5DmtOp3ISTFy9vVIyjvsopCSHs953lEZJsVPp/LJJSSk+6bJUdLje6oubq/huXbe9gOtSoPKh46fNeuPHXvVLL3uuPEqGbq7y7TLS/dt1xRFvZf+vnXTD+f2Wsq577Oe8+2/o+q8yanC1f/2mtdsMzqph9ZMfOJH5019KwAA0JkIWAEom+8sgItFR1Ftvm5FeXRVdMsau0fk4UMvy8SZd2X/+Btm5EY9+uAXSmyQTFFT8kotn5Ruu0+le3XaHmdfJpqTxI7KA2fhwLj05+15xbwkpfSQax9wTYpfJioSTkpe989yWh59kO0ds+dqGxiX3kTO7gVa06GCE6y6Z9PV5cCV19orLjH389GXz8tbpXu6UaDZT/ftXF/LlUsMls/PJ8Ol6wWc2cLcc8Jp6fWcY/7tI/2Vnw2ZDZIITV3/rtXpyN6+9R+W+MarTC3F50o/1wEAQGchYAXAjKrS9IvEptWmtQpNM1L33HyNWaqH71pvAlqaDpg+Uu8v81nZnchJNOOpHRWMS9zzjBpODkvczA1depjdmZRwbrw80ikYHyrvK21JfKD0oDs2UTWCYm6ysjcdluRw3JmWWkWGSg/Ddh1oUY89+6p0rV5umo6GdINW3vQ/HRmp96sGn/W4yfx13877taID5WOC8QHR2zw64N77tefov11qfjbsNEGtve0csbL0jyc6g+C1yz8gXzr8E9sLAAA6QaCof6oD0LH0L9exm1aZWlXNLKw+V42mVdcHW28tKw1W6YNv+u6uug+4uu/L3z5edY6hxZVNAdN6xc41zSck4wNFKQ+y0DSd0Ij050fLD5jOSA/PyCcdmTFqHyb1+oPdle0p6Iiqwe68jOqFzeuMy0DN+zKvNT4w69Fai2kppsKHvzT6Hpg4845sf/QFu+XQ+nIaWPaKPj4hb134hez5d94xUx6+uW/n/1pV972RlVhgULo951e9H/NvT9sd1aIZz/toAj/fy1rPSlMENXCl6et+TVnvRO73DTobnwEALAgNWAHoPC+88W7xb/7pjFm++/OLtnfpySPPmlZr8189Y9eKxQefeKm49T8/W3zxtbdtj+Oe/+95s++Zl88V/4+RF02bJBMtlh7zihm7WS1fTIalWHoIrMgni2EJF5N53cgUo6Ufm6WHz9KRll5vqu0pZKJSDDsXbvi+8slwUZ9K/azR1wydo9H3gN6Pd/w/37dbxeK3x1439/JPfnbB9lT6au/nKr65b+f/WlX3vaHnuOdb3nOm/Lc3Vyvcy0+fequYfelnxb8rnC3+9L1f2F4spVb4vsHC4esPYCGREgh0IL/NAjgdN23IXWp9Kq11oyM3vGlF0VvXytGT5yX2+ITZjt1aqW1VFuqWsIzJxFxygQoTpTOjkvGMwihMjNm1eWrwvvLj1LBC69KRjvdsqqTsbguuNIXV9z//uu0ROX3uglnW3s9V/Hrf1lqI15rPv70NbVlzmRlddfjkW2bUFbWtAABoXwSsgA7SKrMA1tK0PrfVbnv7ddbAfffdZLY1VVALOU8SjMuAFkn2FiwupCQ141owngfH0nk7vGk/Lk89mxlz35eneLOmBTXIBAJawqEvbpTtN19tt8TM3ql9Glx26Xq9+7mKX+/bumbwWrNR79+uqYmx6tkHO80jWz9ifqdpXStdAgCA9kPACuggrTIL4ELTWcEy0bT0ulPEh0ZEQnbnVEoPjsNJKT042vN0Vq/aqui2GLK5ds3MYNOJDNkZxdz3tbfPzCAGwL/3bZWZvNYcTPq3B0Iy0n37NPW22p+OED74e0Hzuy357BnbCwAA2gVF14EOoKOqPrv/hDz9+zN5ultaFPBuPXzNwPdAe2j1r6POdvt3d6zr6D/ILAXu/87G1x/AQmKEFdDmdBbAE+fel2zfr9seLB6d/csdEVHd5jOIA8BC4r5tVfp7TtMDP7vvJdsDAABaGQEroE398M335L9+/3X501uulo2rPyQrL11m92DxRGSoWNTZWCe1Zk5FD6CZuG9blf6e0zRBrW+lv/+eOHHO7gEAAK2IgBXQhlptFkAAAJpFf/dtu+5y8/vvgdHTFGUHAKBF8RQLtJFWnQUQAIBm0mCVBq5u+BeXynu/+KV848Wf2j0AAKBVELAC2gizAAIAUPH57ivlvYtF8wed5868y2grtLZCSnpMTb0eSRVsX62ZHAMALaJtZgl0Z6iAvzGDyMJopVkAp8NsM62Hrxn4HmgP7f51TD57xtR01JFX2tAc9b5vbnnkqFk+86XNZnn05Hl5+NDLMnHmXVlT+m8f3bJW7rxxVfk4L/cc1KHBqFBCchKWZH5U4kHb7zWTY5qIn/8AFhIBKywqfpk1n84CGLtplUl/aIfC6tzLrYv7u3Nx37aXdr6XNT1w056J8h94mJBk/hoFLDQY5Qafoo9PyFsXfiHRW9fKridPyIrSf/d9991k9qnzFy6W+3fdts72Yk4IWAFoI20XsComrjRL+Esg+aZZ8suseXQWwEMn3zKFZfUvxe1SWJ0H39bF/d25uG/bSyfcyzqD4PALP5XHItfbHszVTAJWuj50d5dsvm6F7Dn2mvzV4ZfL+06de1++/O2CdK1e3iBYlZVYoFfSpbVopih9ewPSqxtuQEbcAI2KSqY4JN4JPbMx93iHXqM842c5uOPyBHka7itIqickicqOktrgkPeY0r5Mv4z0Tg4iTfne6qkbjKp+P9FkUsYSk19roRCwArCQCFhhURCwai6dBVDTGjRoRWF1AABmT0dbfeEfXjajlPWPP5ibmQSsXDqS6s6v/UC2b7rajLZS93/7uBw+ftasR7esKfdXVAJW4XBYcjlPpKi0HS5tV8WOohkp2qhPbUDIZQJDodqAlLJBnqogmMsNANULWCk3WNZov6oEkaZ8b42CVpMCVjN7rYVEwArAQqLoOtBCmAUQAIDm0JHJj/zOWvnYv7hUInv/2QSwsLA07U/dc/M1Zqkevmu9CWzd0b1K0kdO2976chsGRP/Wnk+GbUdOJJk3fZmo0yVjE2JqjRdSMmgCQhq4KVYdk96bFcmP24CUBpqc/cWiDfBMtU+CEh91+7RlSkeptOhlJbu7Mtop4xxTfr+u6d7bTM3ktQCghRGwAloIswACANA8+rtU24P/6hozi+B//f7rdg+aTYNVWnw9fXeXqVVVa1twpV1rLNrnDD0K3t4vTlgmLP23O0OIIn1uxMpRODBig045SYR01ryaEU2hbnuNtPTWzqo31b6SQqrHXM9pzugvV2FizFkJJ2WnHSlVeb+Oad/bDNV9rfiADaABQOsjYAW0AB1Vdes385LYtNo0AADQPFvWXGbqQWq6vf5xSFPu0TwarDp0/KwJVmmtKtf2R8fLgSytbXXzdSvsnmbyjpKyTXPugnEZLealMiDJCR71aGRqqn3ZmITssKawGd3ljrCaiwbvbT4KE2LDWADQ8ghYAT6nswCeOPe+ZPt+3fYAAIBm05FWGrjS9HudPVADV5gbrV/lXe4ff0PeKv133f7oC6bP7dd6VRqsij0+YbZjt64xy2YIdm2wa2kZ9AyPKqRSUkm6q6T3uSl5ufG8s9JgX3lUUzQjo5ojWBMgKr9ubkQO2JetjKhyzOy9TW8mrwUArYyAFeBT+tddTU3401uuNn/xZeptAAAWno5k1vpW//jKO2aEszbMjtakclvttrd/2/qVsu++myS3eZ88MnGDfGz4Cnn/O7vMvnmL7CyPkMolQuUUvlBi3OnMxsp93pQ8k3Y41T5XutfZX1ucPdJnR1xV0v3cEVll0723mZrJawFACyNgBfiQzgKoH5Y1PeFjV37QrAMAgMWhfyT6m09dJ4dOvmVGWulIZzTf238RKP1/UX7+3Yfksj/7pWm63hw6Qsqb1mdF+6RR0t1UM/S5+4LxYc81tWh6bUpgRIbySU/NqqhkqrbV7N9bfbWvVXo/mdrXAoDWFSjqONc2UJlS9UqzXGi3fPUVuzY7z3z5WrvWWQJJZ1g9U95OTdMQdJaiB0ZPy1d61lBYHQAAH/jktwrm97KOeOaPSNUqn8Fn9xnPCVZVaLBKvf2XvyKX/XlbPJ5YBUn1hJzZ/MJJyY/GxSkT3x7m+vUHgJngNy7gI8wCCACA/xz8vaAZ9bxpj1NrCfOnQSm3/eonHjSBKm263to0QOWk5znNBqtKogMzCVZlJVY+t7rFZlPgCgDaAAErwAeYBRAAAH/TPyQ9/fshST57hoLsTXbJ7+wqB690vf04swHObALAiAzpbIF12nwnEASAVkPAah40va+2NerXVt9BiQU+J54JQkQKX5eewAOVWUKyD0ggcL1t1ccWUp9rsO+EpHqul1hWr6/77PWmuBaWBrMAAgDQGrS21ee7r5S+9R+WLx3+CbWtUEdldsFKG5plbSoAgCJg5XcavOp9UZL5H5V+2ZVa5g67wwlWhUbukLz2m303SCLkCXSVjA0+Jd3m3K9IZIprYfExCyAAAK1Hf19r+931Hzbbu47Mra4pAACYGgGrlnCDdLkJ75F7JW7WD8ruhEhy+N5KLnwkJsnwHtnrjVj1x+zxrnrXwmJjFkAAAFrbtusuN4Er/aPTkdNvmwYAAJqHp+R50JkCa1ujfm1zEvyU9If3SG9A0/tsn8o+JWk5KomQm96nbWu5qKNrQ9c6u1bS6FpYNDoLoNar+nsNWC0LyGfWXWH3AACAVqMBK00P1NRA/R1/6ORbdg8AAJivQFETq9tAZUrVK81yoWkAql5dqkb9qv4+rTH119Kd/x+V0U6auhfKy4Cm8dkup+8hycl2yWi/1qLqFWfdHlJNa1htlfGBH00u0Fh7Ldu9kAJJpzhpp095q4VaFYXVAQBoP3/4v07Kg//qGnnvYtGMou4E7mdwdLZO/4wPYGEQsJqjBQ1YNQxGOUGokf7DMnr7/5Ke0H7p955XZYqAleG5VtwzCmuBdHrASkdVfXb/CTO7EAAAaF/PnXlXUs+ekUe2fqQj6lNWPoMTsOhEfP0BLCRSApfcr0l3+Kgkdh+02wcl1rvHrpdkH5iUvmfS/IL3ykBUUwK9RdZPSCr2dWk48V+ja2FBMQsgAACdQ2ta/bdP/0t56MgrZnIVAAAwNwSs5kFHTNW2Rv3a6lsn8dG/lWj687YO1VPSl39QwnavhEIy1lupUaUjotwRU5GhH0km6tSkKu/v/lSlCHutKa6F5mMWQAAAOpeOsPr3v3GVfPz//aGpbwUAAGaHlEAsik5LCdRZADVIpUErCqsDANC5tCzAD396Qb45cVb+5lPX2d72QUpYZ+PrD5f7vYDW4vd7lxFWQBMxCyAAAPC69rJflS3XLpf4xqvMyOsjp9+2ewAAwFQYYYVF0SkjrJgFEAAANKLBKp098G/H3zSfFT74gdb/2zEjbDobX3+4eB5vLa3yfM4IK6AJdFTVrd/Mmw+fBKsAAEA9W9ZcVg5S6ahsRlsBANAYAStgnpgFEAAAzJROwvJ//tY15rPDoZNvmXqX7/3il3YvAABwEbAC5ohZAAEAwFzpaCsNXA394A058so7JoAFAAAqCFgBc6CzAOqQfq1D8bErP9gWNSgAAMDie2TrR8wfviJ7/9lsM9pqNgqS6glILGs3F1g2FpBAICZTvVwh1SOBxXpDANDm2q7oOvyt1Qsyar0J/SD5wOhp+UrPGjPzDwAAQDNoMfZ/fOUd+ZtPXWd7/K9e0e1bHjlqls98abNZHj15Xh4+9LJMnHlX1lxxiUS3rJU7b1xVPs7LPWdmNGAVkvGBogxFbNdsZWMSGOyW/GhcgrZrPjRgFRofkOKc31Broeg6XBRdby2tUnS9DWcJ5IelH7XL14dZAAEAwELSP4x94R9elvjGq0zaoN81+oynwSg3+BR9fELeuvALid66VnY9eUJWXLpM9t13k9mnzl+4WO7fdds62zsTBKyWGs9gcBGwai3MEgi0EWYBBAAAi0HLDOgobi078Nl9L9ne1nbs5Hm5f9tHZdv6lWZ01WlPva5TpfXY4y9OG6wyqXYBTclzWnXWnZMa6OzrkVTBdqtCSno85wV6UqWjHSbFrzctkktISPdNk8qnx/dUXdxNE6xcO2/7AQDzR8AKmAazAAIAgMWkwSotOxDftNrMJPiNF39q97QmHWm1+boVZiRV+sgpiW5ZY/dIOVVw//gbkn76lO2tZkYtJTZIplgUTQ4p5pPSbfepdO8OkWFnXyaak8SOSlCqcGBc+vP2vGJekpKQkA1MRYZKfZmoSDgped0/y1FRGqzqHbPnahsYl95Ezu4F0Ay3fPWVObX5ysaul0DggSlr1jlOSKrn+kWrpddpCFgBDTALIAAAWErbrrtcrl3+ARPA0glftJZmK9O0P3XPzdeYpXr4rvUmoHVH9ypJHzlte72ysjuRk2hmSMrhpGBc4p7YUjg5LHGbzxfZmZRwbrw80ikYHyrvK21JfCAqMjZRDmjNXVb2psOSHPakEkaGRONfAFpM9gEJ9Hy96udCZOhHUix+pfJzB0uCgBVQB7MAAgAAP9DPIVrL6rkz75qAlY64akUarNLi6+m7u0z6X61twZV2rUZ2r6QlKn1TPDVu6KqtPjUmE54nz6p0Qk0BbIbCROlVNkjtS4e6w3YNADBfPIUDHvpBUOtV/b0GrJYF5DPrrrB7AAAAls6uLdea5TcnzprPK6002kqDVYeOnzXBqq7Vy22vyPZHx8uBrD3HXpObr1th9zRLVmKBgIRG+itpe80aApUfF5L/gMXxzJevndQa9WtrSEdSBTTVT9vnTL07k/rXu0ck95CEtD920Dm01N+TckaFugqpz3nOb5QG6KQIetMJq89zXtfhphMeLP2s8pxT5312KgJWgIdOJ/2N0gfB//bpf2lqRwAAAPiFjvz+m09dZ0aC62cWvwatdIZA71LrU71Veq/bH33B9Ln9OmugBqtij0+Y7ditldpWZaFuCdeMmJoxMwoqKhnPDICFiTG7Nk8N3ld+nDAW4EuFr0tP74uSzGuqX6ll7jDdJvUvs10k/KDktX/ok6a/lgadQokbJKPHaMs/WFVLz5WNbZWE6LWcdEJz3sgdzrXN694giVB1bayxwaek27yv0jkN3menImAFlDALIAAAaBWf777SfF6J7P1n8xnGb7Qmldtqt739OmvgvvtuMts6+koLs08SjMuAFlIPxSoPeIWUpOqObKjHE1QqnbejXlF0T82rGXPfl6fAe+lJVZqVcQhgIdxQSeON3Oupbzedg7I7cVSiGU9Nq2Dp/JpUZR2V1Tv2oORH77VBcj1PJDnsbpdEYpIM75G93p9h/bGa9zLX99l+CFih4zELIAAAaEVP/35IXnnnF/LJb7V3vojO5peJpqXXrUMVGhEJ2Z1TCcZlOCmSCNnzdDLB2pTAyM7Sw6O99iyn+YoM2VkH3fe1t0/ySWpYAc3WaBbAev3a6gp+SvrDe0r3+hxm9Ms+JWnZPmUtvbHBz0lvertkysGqEnPe0dLPIDe9T9tWqY2bb+haZ9dK5vM+2xABq1ZVSEmP+eXY0zindSbHdDBmAQQAAK1OP8P83Z2/JruOvCLfePGntrf9aNDK1KAybdSOOAhKfLQoQ96HyGBcRsv7dXO0cp6mBkaGnKWzu8S5htlfdaHJ9D2MVg118JxrzzevN811AMxOozpV9fq11beudL/+yKTyjfVeX3pGrk7La44X66Qvb6+kEXpa4x8Ti/E+W0dbB6y8OfJKc+S1uKP23fm1H8i+598w/e5x3ob2xiyAAACgXegf3TRFUCeL+cP/dbKlCrL7i1OkvTyjoKcx0gFoE8F7ZbR42KTlDdYUVW8oFJJw3WBUxYaB/yF5M6LTUyR9Buc1NJf32Yba+indzY93DT192iy/etd6OV/6RZ4+cspsu7n0B7+4UbauXyl3dK8y/b5m/nqkf82p/AUJ02MWQAAA0I40aKVt60cuk/d+8UtJPnvG7pm/I//0vNz1XzISfOSg3PAfvyPbR475snbW/EVkyB0tVdMYNAW0uOwDkwLPVal4uXzjWnbBe2Ugqql9ntFOha9PqqUXjLtBK3tcvfN0ZsDY1yu172pN9z47TEcNKzl28rzcv+2jpsBjdMtaOX3ufbtH5FRpPfb4i7Ki9It+1211viHqpdeV+6qLQDp9bqtOx8vGvPu8f62p/EUnlrXrPZ4ijrXqpvsVJNXjufYB240yZgEEAADt7N/e8C/MH+g0eHXk9NvzDiztenS/RJ48I6dOnZKP//g70vXSQTnx7NOy6WtH5YkT5+xRALBwGtWpqtevra5QyKbYadsqI/2HK4FoWwhd60YFYgdtZzWdTTATtcdoC+2vW0tPg1bucfqsP+k8fe3uT3nSkmtM9T47UKCofzJoA4Hkc2ZZTGw0S5em99WOtNLRVZoSuH3T1WY6XXX/t4/L4eNnzXp0y5pyf5kGiEIJyUlYknk7qqncF5VMcUgi5W2vyvEarKo3c0g0o3+10SBVr1TtDiclX5Vj7zHp/WiwKjSpgJvD856XSKOvz2LRD2uf3X/CFCcFAADoBFqrU2tcqS1rLjPL2Xhi9Hvy7777M/n0ySdkxc/P217H+8sule/+xv8ux9/7gNleqs94WFpL/Rkf/lH5XrjSLOFvgeSbZun3e7cjC/fsetLJAb3n5mvMUj1813oT2NJ0wPQRJ3Vw1vLjNlilASx3CHEluDVoolEaPHL2uZOUpKvmtCzRQJWe2yhYVU92dzlYpQEwvT6zlDiYBRAAAHSif/8bV5lanf/3M6+Zz0KzHW21+9jr0vWzFycFq9QlFy/I5rPft1sAADRfxwWsNFilxdfTd3eZ9L9a24Ir7dochLrFCRG50+5W0vUKB0ZsMCsn7tS69UZbqejALAJVVmFizFkJJ2WnHTIYjA9IzcS9HYVZAAEAQKfTzz86i6AGrL70nVNmNsGZtu+/e6msfcep+VrP8h87IyoAAFgIHRWw0mDVoeNnTbCqa/Vy2ytm5kA3kLXn2Gty83Ur7J5ZMoXQ81IZ2OQEp3q8RayqRl/ZtlBJqYUJsWEs39IaCzoCqtmz2TALIAAAQMW26y6XxyLXy64t1864/fKS5WYkVSOrVzJ5DQBg4bT1U7zWr/Iu94+/IW9duCjbH33B9Ln9Wq9Kg1WxxyfMduzWNWZZX05GDjgBqMqoKa+gxEedQJSb8pcbz0uwa4OzIWkZ9ASwCqmUZ8aAuStfPzci9u01eH/+oUGqz+57SbaWPkDpshlBK70GswACAADM302lj1GvfahSQqPW8u4tdg0AgOZr64CV1qRyW+22t19nDdx3302S27xPHpm4QT42fIW8/51dZl9Z8HbptyOncomQSekLjWhFKo9szPS7zU35i/ZFRCI7yyOv3PPNNRLjTud8Rfps+l8l5TBUvwK7L7jBqke2fkQ+332lWTYjaMUsgAAAAM3x1ciNkl/723IxMLmswqpVqyT3oRvsFgAAzUeeVMnbfxEo/X9Rfv7dh+SyP/ulabpeLSjx4WQlQKWF0Yf77UZjzgyAuqYjr7zpgla0T5qTEBiRobzn/Wlx94x32z+8wSp35hpdzidopaOqbv1mXhKbVpsGAACA+bllzQr5D5+4Qb77mzvkZ6udmZaXL18u63puk2c2f0HCH5ljGQ0AAGYgUNTctTYw1ylVnWBVhQar1Nt/+Sty2Z+3xX8aX3C/Pj/9w5smBau8njvzrnzp8E9McdCZFknXGlixm1aZWlUUVgcAAGiuI6fflgdGT8uhk2+Zbf0M95WeNab0wlw/g6M98PWHy/1eQGvx+73b8QErL00DdEdW/eonHpRLfqcmLXDRZSUW6JV6kwlWRm61BvfrowU///W/XCEDv924HoJ+GPrjgyfl34RmNmPjv+1aaYqrU1gdAABgcRGw6Gx8/eHie6G1tMrXi4AVFoX79Xn2D26YcgRVvXRBAAAA+FOnfAbPxrQ+rc72PdSwnEch1SOh8YGFmwHch3gGg4vvhdbSKl8vhqRgUU1Vq4pgFQAAQOvzzsatdDbu7Y+Om747v/YD2ff8G6bfPc7b/CoypLOANw5WAQCaj4AVFl29oBXBKgAAgPbgzsTtGnr6tFl+9a71cr70mS995JTZdmftPvjFjbJ1/Uq5o3uV6QcAQBGwwpLwBq1OnHufYBUAAECbOnbyvNy/7aOybf1KiW5ZK6dLn/1cp0rrscdflBWXLpNdt62zvV5a07VHUgW7qQop6QnESnusbEwCgYBt1cdqml79fQVJ9QQkltXr6z7P9erQlMCeqjfh9JWv3ZOSvO0HADQHASssGTdo9clvFQhWAQAAtCkdRbX5uhXl0VXRLWvsHpGHD70sE2felf3jb0j6aWfk1axo8Kp3TJJ5TdkrtUy/3WFrSo30S177zb4NkghVB6bGBvdKtzl3dul+pqbVWLJy7YFx6U3k7F4AQDO0XdF1+BtF+AAAANpHo8K9Wo+qNjXw/m8fN/Ws9t13kxlR5bXryRMmaFV7jjPCalC686MSD9ouDVKFxmVAg0zedbvbUec8M6oqJOMDOtu2sz7Sn5fRygENaYBqsNs9tt61bRBLMhRdR0fie6G1tMrXi1kCsSj4+gAAALSfRp/xagNWGpA6dPyspO/ukq7Vy21vhe778rePzz5gZYNQOrgpmtFAlD1G0wR703ajmnOcN3hld0yhKmDVIEjGLIHoZHwvtJZW+XqREggAAABgwTQKVunMgbpPR13tOfaa3HzdCrtnNoISHy1KMZ+Usd7aWlRRybgpe54273hSflxI/gOAhUfACgAAAEDT6Ogq71JT/d66cFG2P/qC6XP7o7euNcGq2OMTZjt2a6W21ZTqBYyCcRkt5iUZTsugFkcPdUtYxmSiuk56czS4dn6cMBbgKzoactKECw3M5thmmMnrLfZ78iECVgAAAACaRtP63Fa77e3XWQO1npVu6+grLcw+WUi6wzlJ7HbHTWUl5k31y8YkVjO934auoAlgDURL51UVWS9IKpYq/f88udfe4blW6X00yEAEOpY3QK00QK0jK7Xvzq/9QPY9/4bpd4/ztllzgzs9TbjH4RsErAAAAAD4lKb8ZSSa7pWAGWmwV/rySQnbvTrayUkF1OYUUXdT/iJDRclE09Jr9tn93beXrjh/kaG8JCUhIffae/sknyy/KwAlbnDaNfT0abP86l3ry7OGKjeQffCLG2Xr+pVyR/cq0z8bhQMjDUZeaipw9QQJvuDn9+YjBKwAAAAA+FhEhso1qIYkYh70bMHz8kOf02pn/NOglbuver9T+2qm9az0OtXXtrWz3GuXLhSMj3ZUwXVgto6dPC/3b/uoGV0Z3bJWTp973+4ROVVajz3+oplBdNdt62xvjXKKnNucVDmdFCGkMy+onBNI7tEdDVLqdIKEyjXssbW8r+UZtaWv5T23MsJTJ4hw++z6VKO96r43nQzCc+0DtruDEbACAAAA0OEqD5u1rTblEMDc6CgqTf11R1dFt1Tq1j186GWZOPOuqXmXftoZeVVFAzyhxLwnPKgKbk0hu9t9rahkRuNmZKaeW5v6m+6d/DMi3dsrs88Qrsx46kon5v/vbXUErAAAAAB0OO8orurGoCmguXR2UHXPzdeYpXr4rvUmoKXpgOkjTupglfJkC97ZP510Oh0BWU7JDSclX9pXO9rSKKRk0EaSwsm8vUZG+p2uinzluGjGjuYsnxuWZN55/UxUt0XSe2siVvY9FG2ga0ayu8vBqmjGuT5pxgSsAAAAAADAItBglRZf14kWNP2v1rbgSrtWw8zOqdy6dLOfOa9c5yqclOFyQCsi8argVk4SvXZkUzRTDlhXamTpZA7O6MtGEy1EB2YRqLIKE2POSum97bSvGYwPiI2JdSwCVgAAAAAAYEFpsOrQ8bMmWNW1erntFTNzoBvI2nPsNbm53oyhpl5dXiqDjpzAUd36U/MSlrD7Gum9nllGXd4RXrYt1DDMwoTYMFbHImAFAAAAAACa6pZHjlYttT7VWxcuyvZHXzB9bn/01rUmWBV7fMJsx26t1LaqVpnswE3Hy43nnRVXblxqesqCXRuclVxCdnuKpadqgl79wxk7siktvbZAVfncUt+g5/hCKlUnqDV7lfc2Igfs5evOfNhhOiZgpRFbvSF09oFaWtTNvWG8Nw4AAAAAAJg9rUnlttptb7/OGrjvvpskt3mfPDJxg3xs+Ap5/zu7zL6ybKxqMgQ3HS/a54xu8gaUNGWw7siryM7yCC0tlu5cq1dGnC6PiOwsHzjopB56zs0lQuX3EUqMO53zFemzQbJKyuFMisO3u44IWOksBDr0UD127FWz9Lrjxqtk6O4u0y6/dJl0rf6Q3ePlTDEZy3qnmqzJm/VOfamtZhpLnVWgJ5WtnqpSw7FV58UmRWirp92cfa4uAAAAAAB+9PZfBEr/X5Sff/chuezPfmmark9Hi5OXs/EiQ+VRV405I7Rqj9vQNbniVKV+lAaQ9Bldz/WmJFrRPqco+7xFZCiftHW6VFiSGe92Z+qIgNWhghOsumfT1eXAldfaKy4x02seffm8GaK467Z1ds9k6d4dIsPuMMTSN++OSlCqcGBc+u2MAUXNr5WEhGrmuMwlBsvna9V/E9k1l7TnhCvDDpUGq0Ij/c4sA9oyG+wNAwAAAABA63KCVbqcJjQRGbLP2ZVWWzpKZwt095lZAk3dK912ZhN0eY8rX2fSsd6ZQ+1MgZ6UxHKrRMzKx8+opFW991bus/2R+u+/k3REwOqxZ181Rd20nT73fjlo5U3/01RBnT4zumVNVQG4WuHkcPmbJbIzKWFPjmwwPuT5Rip9Mw9ERcYmqkZZSXSgfIwbta3MIlB7TlZ2J0SSw55ZBsxQxLTUzpwJAAAAAMBCOXvhonzhqR+bZbNc9ufFcvvVTzwob//lr5im660vK7FyplR1qxnXggbaPmA1ceadUntXjp08Lw89dcL07Xv+DbP05s1qjStNBdSCb1OZPFxwTCY8Eamq9L0681yGu0N2zRWWSV2u7F5Je3JYnRYSUlkBAACwWI780/Ny13/JSPCRg3LDf/yObB85Jq+8/XO7F6jge6V9aZDqs/tekq3XXW6WzQxauS75nV3l4JWutz7vKK3qNqNRWGj/gJVOi7nmikvKwakHP71ODh8/W1V8XQNYGtCaKhVwek70tDp9z8l6nZ8602aWWrt8gy9ElB4AAADNsevR/RJ58oycOnVKPv7j70jXSwflxLNPy6avHZUnTpyzRwF8r7QzN1j1yNaPyOe7rzTLhQpaAV5tH7DS9L97Nl1jt0S2BVeawur7n3/d9oicPnfBLGun15yVwoSMaXBptJK+V5gYs2tzFOqWcM0Irnbi/uBbyCg9AAAA5uaJ0e/Jfzr5QYn8eL9sPvM9WfvOKdNuevP78pkf7pE/esKZgh6YyffKD998zx6NVuINVm20k5PpkqAVFkP7B6y+uFG233y13RJZceky0+dN/dN1dwSW2+bGE1wqpGTHfHP3gnEZ0MLuVUXWC5KKVc8+2Iq8P/iI0gMAAPjP7mOvS9fPXpQVPz9veyouuXhBNp/9vt3yD52Vu96s25O5M4DbzQU0k/dkyoq0cFGbmXyvPPSPk2drh7/VC1a5CFphMQSKml/WBgLJ58yymNhols2nv9RCMj7gSccrpKQnNCL9eadqv5nRzw1ShZOSHxiX0GC35O2oK/1lNdidd2YsMDSNcFC67flOV0wCnnOcroB4y2GFk95rtAbv16fRD77nzrwrXzr8E/m7O39NVl66zPYCANrVCU96Phrjv9PM8N9pZmbz3+k/f2dctv7kf8qq9yqZCV7vL7tU/rbrXrPu/QzuZiu4fwQ+evK8PHzoZVNXVkt1RLeslTtvXFU3q2FWfziu87l55up8tl9C5jlifMAz41hrcD/jX/X+m9N+r3zj4/fJn/5WJfMF/jc8/qbct2GVDPx246/boZNvyUNHXjFLtXDP42imhY+fNAcBKywK9+vz0z+8qWGUXhG0ar5mfoB/7xe/NF8XDTpOtXzvYuv9WOFBZ2b47zQz/HeamXWlB1dMj/9OM8N/p5mZzX+nVckjclvhW3VHzagPr1otu6/+PbNe+xlcg1Fu8Cn6+IS8deEXJqtBJzrSjId9991k9qnzpc8Pbv+sasoSsFpy7mf8K+W9ab9X/nptv7z7R79he9AKpns28w5E2PTfX7S9aCUErBYJASt/c78+W65dLts/fqX88W9eZbbr0ej8v/+fL8v/+VvXyOHSuta4arT8x1fekd+86oPyT6+/N6+lXmeq12nl5e93rTS/bDRAuFjLV975hf1qtg4edGaG/04zw38nAO1g29ePyAde+K6sP1e/GMWaT9wpD71+nVmfKmCl60N3d8nm61aYCZH+6vDL5X06EdKXv12QrtXLGwerNDBVTjcISzI/Kl27qzMQJJoxwZ7JGQ01WRAl0YwGqWoDVs52IqcTHg2JdlWf57yuc1n33IxIb6+kzSRJzjn11HtPVRkU4aRk+kekt4UDVluveG/a75XDH/yYHPy92YcWsbT08329oJU3WKWf/3keby2t8vUiYIVF4X59nv2DG2YcpdcffAAAAFgaz5w+L//mG8fkf3vxm7KsWF2jZtWqVfLM5i/IP7z8ttmeKmDl0pFUd37tB7J909XlerL3f/u4mcFbRbesqaoza9SU4JBsSlKhuF2vX0rDGxxygk4bKgGl0vVS+dL5NQErE0AaS5avZc7T2b/da5ugmdjrOOeOSFT6h4cqpT0aqH1Pta/lXDtdDrq1Evcz/vd+f/203yt/svka+cy6K2wvWklt0KreMxvP462lVb5ebV90Hf6iP9D0B5v+gNMfdF4EqwAAAPzjljUr5D984gb57m/ukJ+tDpm+5cuXy7qe20wAIvyRFaZvpjTtT91zc6UezsN3rTeBrTu6V0n6yGnbW2uDdLlBoYgNVs1IVnYnchLNeEY/BTVYZdetSQEkc55IcrgSCJPITkmG07LXWxe9f+cs3osrK3vT4ZprD0kmatdb1Ey+VwhWtS7vM5yWPeCZDYuFgBUWXb2gFcEqAAAA/7n/lmtluG+DvLqxT9If/0NJXr9DRpbdaEbL7NpyrT1qehqs0uLr6bu7TK2qWtuCK+1ajeDt0h9OS29gDjP6ZfeadL2+KQYtjQ32SG86KhnPKC3nPJ2pW2f3c5umC9r91oZyFG0WChMy5g3AWaHusF1rXc36XoE/uc9wn/xWgWc2LBoCVlgS3qAVUXoAAAD/2rLmMlN7SFNHtGmJh9mMltFg1aHjZ02wSmtVubY/Ol4OZGltq5uvqzdiKyjx0aIU80kZ69XAUUxmG7ea3phMTCq9pHWpSq9b0+adsZcfl5q4V1uZ7/cK/E2f1V66t5tnNiwaAlZYMm7Qiig9AABA+9D6Vd7l/vE35K0LF2X7oy+YPrdf61VpsCr2+ITZjt26xizrCsZltJg3aXmDqfqFvScJdUu4bjCqYsPAqOSTIolQj5QvO4Pz5qzBtfPj7RzGAoC5IWCFJUWUHgAAoL1oTSq31W57+7etXyn77rvJbOvoK51FcJJsbFIqYFUqXm5c8nZ1kmBcBqKa2ucZlaVF12uuF4y7QSt7XL3ztNB6LFX6/3lyr73Dc63Sv7FqxkMAgEHACgAAAIA/hbptKqBTR2qkP19Jy7OF0LW+VaBBgavIUFEyUXuMttBI6Zp2p4cGrdzj9FKTztPX7r69UudqHiJDeUlKQkLutff2ST7Z+jWsAKDZAkVNxm4DTKPpb3x9AAAA2g+f8TobX3+4+F5oLa3y9WKEFQAAAADMWVZi5ZFY1W3WMxsCaIpsTO/BmUzSUJBUj3/vVf139My0bl8bImAFAAAAAHMWkaGa2QTdNu9ZBQFMLxuTQE91jTlN6y0Wh0p3J1oZASsAAAAAALBgdj15wswQeurc+7anIv30qfIMot6ZRAECVgAAAAAAYEGcv3BRDh0/a9YfO/aqWXrdceNVMnR3l2mXX7pMuhrNIK8jqcoptz2imXIm9U+n2czZiQxsbl+9VLpCqsdzfqM0QCdF0JtOWH2e87oON53QTQueKgVRj/GeW1JISU/5nNlcq3MQsAIAAAAAAAviUMEJVt2z6epy4Mpr7RWXyObrVsjRl8/LWxcuyq7b1tk9Hhrc6R2TZN6m3Gb6TbdJ/ctERcJJyWt/gzxcDTqFEhsk46bs5pPSbfd5ZWMhSYhey0knNOeN9DvXNq+7QRKh6mDS2OBe6Tbva/4piM28VjvomIAVQxABAAAAAFhcjz37qnStXm7a6dLzuBu08j5763N6+shpiW5ZY46rb4N0Be1qJC5xd31aWdmdyEk04wkCBUvn10SEdFRW71hS8qNxcS6t54kkh93tkshOSYbTstcbserfOYv3Mo1mXqsNdETAaiGHIOo38eyH9rl97nBD7/Uscw13X6nVFJFzhjhmPefbIY1V500eRth4OCMAAAAAAM0zceadUntXjp08Lw89dcL07Xv+DbN85kubTVM6wESfw6O3rjXbkwRvl/5wWnrd597ZyO6VtESlb4ohS2ODPdKbjkqmHKwqMeflJBFyn5+1hSSRs/utDeUo2vw181rtoCMCVgs5BHGm6g3tS/fuEBl2rpeJlm6EHZWgVOHAuPS7r1XMS1ISEqq5M3OJwfL5+WS4dL3SDWQuac/RG9pzzkyGMwIAAAAA0Ax7jr0ma0rP225w6sFPr5PDpWdyb+aTBrA0oFX3ObwsKPHR0jNsPilj+ty7IDWexmRi0oCOaCWN0NOYAXRxdETAaumHIJbUGdoXTg6X+yI7kxLOjUve2ZRgfMhzfOnmHIiW7p+JqlFWEh0oHxOMD5RuJe1yI8K158xwOCMAAAAAAE2gz973bLrGbolsC640WU37n3/d9kjpGf2CWW5/9IWqZ/S6gnEZtYMzBmeaLhTqlnDdYFTFhoFRySdFEiFPFtIMzpuX/LjUDNZCjbYPWPliCGJJvaF9k/uqb4aq9D2d+aBGuDtk11xhmdTlmuFwRgAAAAAAmuHQFzfK9puvtlsiKy5dZvq8z9267j6be5/Rq2Rjk57Dq56nPYM/JgnGZUAzmrzZRYWUpGquF4y7QSt7XL3ztLxPrLpcz8yEpDtcutZu90pZidV5xke1tg9YtdYQRJdT76o6fU/HT80XwxkBAAAAAC0m1G2fw52BFyP9+cpzrM0c0sElgQajS3Q2wUzUHqMtNKIxpEk0aOUep5eadJ6+dvftlaylGdN4Qkai6V57nb3Sl09K2O5FfW0fsFqSIYjzHdpXmJAxDS55Cr4VJsbs2hwt9HBGAAAAAAAWgnkOrwy6GK2qt2MHl+g+G8XSQFP1MU6fe36xOGrL6zjnegdxuMe5fdXnea87+dypRWSofJ0hiZh/k1vjuv616v07Okn7B6wWfAjiQg3t8wSXCinZMd/cvaYOZwQAAAAAABVOppQzgqq6zaWsEDqk6HpTNByCuABD+4JxGTa5s/b1dOa/JqQEanS2OcMZAQAAgDaRjUmgp8l/xJ3NNRfi9QEsAe8Iquo281FY8AqU/uMV7XpLCySfM8tiYqNZwl/4+gAAALSf6T7j6cRG+8ffkG/fd5OsveIS2+tIP33KzNLtVTfTYaFpwGiwW/KechzzNptrLsTrLxI+48PF90JraZWvFyOsAAAAADTd+QsXTT1Z9dixV83S644br5Khu7tM0xqzOmN3I1WzZ5eaN72mdl910eWCpHr0eGfpHFOZtj4bK21rOY9cQkI151Zf1zPV/TyuWavesaav5hzzXuwoLN3fU3qxqvdXZ4RW4/cPAK2BgBUAAACApjtUcIJV92y6uhy48tIRV5uvWyFHXz4vb1242HDGbg28hBIbKrNd55PS3WifTo401jsp4JPu1RobzjEZreu6wwnwmGLKWnojnHRm57Z5O+a6VTN2b6ipBTv7a9ZT79hIX2l7bMITgCrIgZGcRAcqI7ByiZDskOHKv1kSEqoJtk33/gHA7whYAQAAAGi6x559VbpWLzft9Ln3y0Er76zcp0r9mhYY3bLGHDdZVnYnchLNuDNplQTjEjcbuk8kmffsk6DEh5MSTu+tCs6Ek8N2RjCRyM7S/ty45J3NOux1hz0penba/L2ei87umrMQ6ZNobkQOuBGrwgEZyUWlzxv3imaqZyoz/+ZBO4pqZu8fAPyOgBUAAACAppo4806pvSvHTp6Xh546Yfr2Pf+GWXpn5dYaV5oK6J3Bu0p2r6SlJljjMvs2iJm42yvYVer1zLhd4szu7VW9v4q5rs6u7abTaQtJ7aTds7rmrESkL5qTERuxKhwYkVy0zxOUEwl3h+yaZf7N1gzfPwD4HQErAAAAAE2159hrsuaKS8rBqQc/vU4OHz9rRlS5NIClAa1GqYBLK+pJM6y0xZrpS9MCcyMHpOCmA9aN2E1lad8/ADQDASsAAAAATaXpf/dsusZuiWwLrjSF1fc//7rtETl97oJZbn/0hao0wSqhbgk3GrnUaF9hotRbZ+TVTE31movFTQvM1kkHLMmN1yQfekeb+eH9A0ATELACAAAA0FSHvrhRtt98td0SWXHpMtPnTf3TdXcEltsmCcZlQAuaewuGF1KS0o16+6QgqR1awGlnVQrdtLz1pxpdNzZ5Jr4pzaam1aRjbVrg4OR0QCPd65kpMSux3rSE3X9zs94/ACwxAlYAAAAAfEtn0stE09Lr1mMKjYjYEk66L58cq+wLhGSkP+8pSD4DtiC5uYaNAk16Tb1u9+2VIubTqXPNhhocq4XcJaext8mht3AyI92D7nvrlXRVEfYmvH8A8IFAUZOZ20Ag+ZxZFhMbzRL+wtcHAACg/fAZbwFlYxIY7Jb8qGe2v5JsLCCD3bMMyi0Qvv5w8b3QWlrl68UIKwAAAABYMFmJlUc6VbfGg68KkhpMS7ifUVEAOldHBayOnjwv93/7eLmoo9u0T/cBAAAAQHNFZKhmtj631Zu1T0dQaQpfYkN1mh/Q8XTUYQ+12DpJxwSsdj15QmKPT8j5CxfNtLpDd3eZpuvap/sePvSyPRoAAAAAFp/WnzIBrXrRrBLdTyALrUafx3WwyKlz79ueivTTpyYNKgFURwSsNBC1f/wNE5xK390ld964SjZft8I0Xdc+3ffYs6+ZG6kR/WtHT2rqeK7zFxHvjBwzUZBUz1RDgmenkOqZvrgjAAAAAAALTAeIHDp+1qw/duxVs/S648arygNKLr90mXSt/pDdU2Ges3vTIrmEhDSl1n3eLaSkx5tqW2cElvOMXtmf5Xm5ZbR9wEpT/TQQpQEpDU65NIqrzaX79BgNbM0nPdD5i8jQ1NPoMpQRAAAAANABDhWcYNU9m64uB6681l5xiRlMcvTl8/LWhYuy67Z1dk+Fec7ORHWKTMl7RiAWDoxLf96OSizmJSkJCXmCURqs6h2z52gbGJfeRM7uhd+1fcBqz7HX5GY7kmo6eoweq+cAAAAAAID5eezZV6Vr9XLTTp97vxy08qb/aapg+shpiW5ZY46bqWB8SCoZskGJD0RFxibs4JCs7E2HJTnsmWkzMiQa90JraPuA1eHSzXBn9/TBKpceq+dMxaTcNRhyWJ026Kb6uTODxCTWaCij4RzvXLtHpsk+LKsd4pi3/WVTDJM059YMhzT/vtIxAAAAAADM1cSZd0rtXTl28rw89JRTfmff82+Y5TNf2mya0tI8mgoYvXWt2Z6NqudzfdZ2FSZkTDZIV03Jt1B32K7B7zqihtXaD19i1yrqFXtT9Y71yiVCskOGGw45rGdscK90m2GKQzLUYCijSvfuEBnW44qSieYksWP6tMGZDHGcaphkpM8bgVYFOTCSk+hA3G4DAAAAADB7mr205opLysEpLcOjA0S8z+MawNKAVr1UwKk5A0NCI/2V52Hv8Kn8uJD819o6ImC14tJlds2hN4TWqrr80g/YnlmIeqeXDUp8OCnh9ODUo6H6d3qGKTYWTg6Xj4vsLF03Nz55tFSVmQ1xnHKYZKRPorkROeC+/8IBGclFpW/KIlwAAAAAAExN0//u2XSN3RLZFlxpCqvvf/512yNy+twFs9z+6AuzmyXQjKCKSma08jxcmBizayWhbgmXjpioeVbPjxPGahUdEbB68bV37ZoTrNKhiBrZ3X7z1ba34tTP6o+8coW7Q3bNCnbJBrvayIbaMYgNTD5u8s1VZRZDHBsOk5SI9EVzMmIjVoUDI5KL9k1dNB4AAAAAgGkc+uLGquduHUyifd7UP113R2C5raFJgzo8z8yFlOzwZhsFb5f+cE3mUjYmVY/D8LW2D1htXb9S9o07ObLeYFWjIux6rJ7TEmY0xHGaYZIlmhaYGzlQuoltOiDDqwAAANAkOgP3/d8+Xh454Tbtm8/s3AA6TGSnJMNp6dVBGFriJhiX4aRIImQHZmiFnapn3aDER21JHHfwxt4+ySepYdUq2j5gpdFczYf9v/7hR9MHq2zubL2RV67ceE2SXnavpOuMcloUMxniON0wSeWmBWZJBwQAAEDzaCHl2OMTcv7CRfM5fOjuLtN0Xft038OHXrZHA8BUNABlB2HYWtDB+Kit1Vxq+swbGXKWZq/ynGPP0+flSZlT8KW2D1htvm6F3NG9Sv5+7HX53Q1XTRms0oDWPZuuNuc0lO6VSo31rMR60xJO7px9Ct209almIBiXgdri7HWHOE4xTNKwaYGDpAMCAACgOTQQpXVjNTiVvrvLfA7Xz9nadF37dN9jz75mAlvtxpTkmGZyJgCLzDwvR2VgJkWmseQ6ooaVzjaggSgNWkUfnzDBKR1+rFNs6rr2abBKA1v3b/uoPau+cDIj3YN2OGGgV9JVRdhnqHYo4zxEhqYZ4jjtMEmHFnnX/MLkTsJVAAAAmB/9rK2BqNrshvTTp0xz6T49RgNbvkkPLD3QBnqmn6170fjt/QAtRGfVd57dbesVyRSHGKTRIgJFHRfXBgLJ58yymNholvXoL0GdVlOn0fTSmlWaBjjlyKp2p78IB7slXzV8snlm8vUBAABAa2n0GU/rU2nKn46i8nKDVd6Cy0r/gKzFmB++a73tWUJN+lysI6xC4wPl1KU5W+DP6fPBZ3y4+F5oLa3y9eqIEVYuDUjpL8HaGQi0z7/BKqdoelVU2LbmjTAuSGowLeH+2333SxAAAACtR/9AfGd3/VIc9eixtX9U9qqa8br8Obj0GbZH193Py7HSJ2dH9fE9kvIOTyqkpKe8r9Q8o5fMaAytr5GzGQyeD9xTXrOkaiRH6ZozLv8xx/cDAO2uowJWrSkiQ26BuJo23z/WKOcXa0gSG+aQ2ggAAAA0sPbDl9i1ilPn3rdr1eod6zIjlRIbJON+Ds4npdvuU2ODe6U7r/ucNB9zfNUM2RskEfIEsw6MS785Xpstr2EDQZEhPT6qdUCc8+0H7umuqZ+pe8fsOdoGxqV3Ut3Y+ubyfgCgExCw6nDmlyC//AAAANBkmuLnpbVjtVbV5Zd+wPbMRFZ2J3ISzXhqzgTjEvd+dO3fKZW/u+rxIslhT/qcrR+710aXgvEhz/FBiQ9ERcYmpqgRNd01s7I3Ha7ZPyR1ysbWNfv3AwCdoaNqWGHp8PUBAABoP40+493yyNGqguvujNy1Rdhd7n4t11FF6zc1LJKsKYEhGR/wZB6Y4ydNmW1EM5XjnFFbnhFQOoLJrRFVWzNqumuGUtITGpeBmvdoXmOGNaxm9X58hM/4cLnfC2gt1LACAAAA0FF0UqN942+Y9emCVUqP1XOaI1pJH/Q0J27k1LuqTu+byVCoKa6ZH9fJtudoru8HANofI6ywKPj6AAAAtJ9Gn/F0du7Y4xPyuxuukr8fe33qYJUNaA3d3TV5IiQtSB4akf78qCdtzlVnhNWUx5eY/dWjocr1qRqNaJrRNSfvN3WtJDP1CKu5vB8f4TM+gIXECCsAAAAATaWBpzu6V5lglQatpgtW3bPp6vqzdgfjMhDNVRU41yBPqrxRo97xGtiKVWbeExmTCXejdK0d9Yqj58Yrs/xNd013/w7Pa2Rj0iCLsI5Zvh8A6BAErAAAAAA03a7b1plAlAatoo9PmOCUjryaOPOOWdc+DVZpYOv+bR+1Z02mkwRlomnpDejs1qUWGhEJ2Z11TDo+EJKR7tud0UnBuAwnRRIhu2+HyHBtCp4tqG7O98zW1/CaZr+d3c/dv7dP8smw3TuFOb4fAOgEpARiUfD1AQAAaD8z+YynQao9x16Tw8fP2h6H1qzafnODkVVoCXzGB7CQGGEFAAAAYMFoQOrhu9abGQC9Tfs6I1jlFFZ3RmZVNwZMAUBjBKwAAAAAYMFEZMidAbCmTVWPHQA6HQErAAAAAAAA+AoBqybRaWsDAe/MIQAAAAAAAJgLAlZNojOHFItDUh7Vm41JoMc7fS4AAAAAAABmomMCVruePCG3PHJUTp173/ZUpJ8+ZfZ5GwAAAAAAAJZGRwSszl+4KIfsNLqPHXvVLL3uuPEqGbq7y7TLL10mXas/ZPdMVkj11J3ZQ1MCe1LOeCqTHtibFsklJKTHlQ4yfTXTgJhr9aTsFgAAAAAAAFRHBKwOFZxg1T2bri4HrrzWXnGJmVL36Mvn5a0LF2XXbevsnmoaYAolNkjGndkjn5Ruu8/LpAdmoiLhpOT1uKGIRPpK22MTnhTBghwYyUl0IG63AQAAAAAAoDoiYPXYs69K1+rlpp0+9345aOVN/9NUwfSR0xLdssYcN1lWdidyEs146lQF4xKf6VS0kT6J5kbkgBuxKhyQkVxU+pjKFgAAAAAAoErbB6wmzrxTau/KsZPn5aGnTpi+fc+/YZbPfGmzaUprXGkqYPTWtWZ7kuxeSct8AkwR6YvmZMRGrAoHRiQX7asEvwAAAAAAAGC0fcBqz7HXZM0Vl5SDUw9+ep0cPn62qvi6BrA0oNUoFbBZNC0wN3JACm46IMOrAAAAAAAAJmn7gJWm/92z6Rq7JbItuNIUVt///Ou2R+T0uQtmuf3RFxrPEhjqlrCMyUSlCNXsuWmBWdIBAQAAAAAAGmn/gNUXN8r2m6+2WyIrLl1m+rypf7rujsBy2yTBuAxEc5IIxaQ8118hJanqif+q5cYlb1cdNi1wkHRAAAAAAACARjqi6Hqz6Ox/mWhaegMBCWgLjYiE7M5akZ2SDNtjY5WoVmRnUiQnktxJuAoAAACYs2xMAj0pzyzcMzCXcwAAS4KA1Sxp0KpYdNuoxIOV/lF3wwhKfNQeN+QJTuXHJRful9u9hwIAAABtSCc20nIb3vqxrvTTp8rlOBqW5QAAdCwCVouqIKnBtIT7bxfiVQAAAGhn5y9cNPVk1WPHXjVLrztuvEqG7u4yTWvM6ozddemoKDfDIdAjqYJ2ldZ70yK5hIS8GQ2FlPSUjy01z2iq+udkJWavWWau4SkDUuf1AQALj4DVIjG/IAMhSWzI1IzEAgAAANrPoYITrLpn09XlwJXX2isukc3XrZCjL5+Xty5crD9jtwaPesckmbeZC5l+022yHjJRkXBS8p6MhsKBcel3jy3mJSkJCdlgVqNzptTg9QEAC4+A1SIppxLO5BcjAAAA0OIee/ZV6Vq93LTT594vB6286X+aKpg+clqiW9aY4+rbIF3u33sj8XJJjnqC8SHP/qDEB6IiYxPzrFk189cHADQPASsAAAAATTVx5p1Se1eOnTwvDz11wvTte/4Ns/TOyq01rjQV0DuDd5Xg7dJvJzLyzGM0pUKqp5LCpymA8zGH1wcANAcBKwAAAABNtefYa7LmikvKwakHP71ODh8/W1V8XQNYGtCqmwpYZicyyidlrFeDUJ7aUpNoPaqAhEb6nZQ/k8IXtfvmajavDwBoJgJWAAAAAJpK0//u2XSN3RLZFlxpCqvvf/512yNy+twFs9z+6AvTzxIYjMuo1qQKp2WwUdXzwoSMSVQyo/HyBEeFiTG7Ngs6q7ddLZvJ6wMAmipQ1D89tIFA8jm7Bj8rJjbaNQAAALQ69zP4gn3Gy8YkJkPilIEtSKonJOMDRWdbZ+/rFckUh8TZnZKe0Ij050edOlNmOyE5LbLuBrFqz7HX1ImRnFqzOkqrV9Ia+NJjpnp9LPzXH0BHY4QVAAAAAH8KddtUPG0hGenPV4JFkZ1mxJPWlwpogalgXIaTIomQPX6HyHBtSmDtOSblLyPRdK99jb3Sl09K2Dl66tcHACyothlhBQAAAGBxMcKms/H1B7CQGGEFAAAAAAAAXyFgBQAAAAAAAF8hYAUAAAAAAABfIWAFAAAAAAAAXyFgBQAAAAAAAF8hYAUAAAAAAABfIWAFAAAAAAAAXyFgBQAAAAAAAF8hYAUAAAAAAABfIWAFAAAAAAAAXyFgBQAAAAAAAF8hYAUAAAAAAABfIWAFAAAAAAAAXyFgBQAAAKBzZWMS6ElJwW42xUJcEwA6DAErAAAAAAti15Mn5JZHjsqpc+/bnor006fMPm8DAMBFwAoAAABA052/cFEOHT9r1h879qpZet1x41UydHeXaZdfuky6Vn/I7pmskOqRQCBQbrGs3VFSuy/g3SkFSfXo8c7SOaZHUnboUzZW2u5Ni+QSEqo5t/q6lXPmc00AwMwRsAIAAADQdIcKTrDqnk1XlwNXXmuvuEQ2X7dCjr58Xt66cFF23bbO7qmmgaNQYoNkikUpassnpbvRvmJekmO9k4JE6d4dIsPOMZloThI7nHS9yFCpLxMVCSclr+cPRczx5roj/U6ftswGSYRi4r3qbK8JAJgdAlYAAAAAmu6xZ1+VrtXLTTt97v1y0Mqb/qepgukjpyW6ZY05brKs7E7kJJoZknLYJxiXuNnQfSLJvGefBCU+nJRwem9VcCmcHJZ40FmP7Cztz41L3tmsw153OF66mhXZKclwWvZ6Ljq7awIAZouAFQAAAICmmjjzTqm9K8dOnpeHnjph+vY9/4ZZPvOlzaYprXGlqYDRW9ea7UmyeyUtUemrN0jJ7NsgXeWokhXsKvWOyUQ5hU9kw6SDqvdXMdfNSSLkpvtpC0kiZ/dbs7omAGDWCFgBAAAAaKo9x16TNVdcUg5OPfjpdXL4+Nmq4usawNKAVqNUwKUV9aQZVhrZfQCweAhYAQAAAGgqTf+7Z9M1dktkW3ClKay+//nXbY/I6XMXzHL7oy80niUw1C3hRiOXGu0rTJR664y8mqmpXhMAsGgIWAEAAABoqkNf3Cjbb77abomsuHSZ6fOm/um6OwLLbZME4zKgBc29Bc8LKUnpRr19OoPfDi1AtdNT12oGvPWnGl035hRVnzFqWgHAvBCwAgAAAOBbOuteJpqWXreeVGhEJFTZl0+OVfYFQjLSn5dRtxr6TNiC6uYadnbBSa+p1+2+vVKEfTp1rgkAmJ1AUZOxAQAAAGCWAsnnzLKY2GiW6Cx8/QEsJEZYAQAAAAAAwFcIWAEAAAAAAMBXCFgBAAAAAADAVwhYAQAAAAAAwFcIWAEAAAAAAMBXCFgBAAAAAADAVwLFErsOAAAAADMWSD5n19DJiomNdg0AmocRVgAAAAAAAPAVRlgBAAAAAADAVxhhBQAAAAAAAF8hYAUAAAAAAABfIWAFAAAAAAAAXyFgBQAAAAAAAF8hYAUAAAAAAABfIWAFAAAAAAAAXyFgBQAAAAAAAF8hYAUAAAAAAABfIWAFAAAAAAAAXyFgBQAAAAAAAF8hYAUAAAAAAABfIWAFAAAAAAAAXyFgBQAAAAAAAF8hYAUAAAAAAABfIWAFAAAAAAAAXyFgBQAAAAAAAF8hYAUAAAAAAABfIWAFAAAAAAAAXyFgBQAAAAAAAF8hYAUAAAAAAABfIWAFAAAAAAAAXyFgBQAAAAAAAF8hYAUAAAAAAABfIWAFAAAAAAAAXyFgBQAAAAAAAF8hYAUAAAAAAABfIWAFAAAAAAAAXyFgBQAAAAAAAF8hYAUAAAAAAABfIWAFAAAAAAAAXyFgBQAAAAAAAF8hYAUAAAAAAABfIWAFAAAAAAAAXyFgBQAAAAAAAF8hYAUAAAAAAABfIWAFAAAAAAAAXyFgBQAAAAAAAF8hYAUAAAAAAABfIWAFAAAAAAAAXyFgBQAAAAAAAF8hYAUAAAAAAABfIWAFAAAAAAAAXyFgBQAAAAAAAF8hYAUAAAAAAABfIWAFAAAAAAAAXyFgBQAAAAAAAF8hYAUAAAAAAABfIWAFAAAAAAAAXyFgBQAAAAAAAF8hYAUAAAAAAABfIWAFAAAAAAAAXyFgBQAAAAAAAF8hYAUAAAAAAABfIWAFAAAAAAAAXyFgBQAAAAAAAF8hYAUAAAAAAAAfEfn/ASWtudmIqdhmAAAAAElFTkSuQmCC;" parent="1" vertex="1">
          <mxGeometry x="182" y="-240" width="1196" height="419" as="geometry" />
        </mxCell>
      </root>
    </mxGraphModel>
  </diagram>
</mxfile>
